<?xml version="1.0" encoding="UTF-8"?>
<svg xmlns="http://www.w3.org/2000/svg" version="1.1" viewBox="0 0 1601 337">
  <defs>
    <style>
      .cls-1 {
        fill-rule: evenodd;
      }

      .cls-1, .cls-2 {
        fill: #20252f;
      }

      .cls-3 {
        fill: #00e26e;
      }
    </style>
  </defs>
  <!-- Generator: Adobe Illustrator 28.6.0, SVG Export Plug-In . SVG Version: 1.2.0 Build 709)  -->
  <g>
    <g id="Layer_1">
      <g>
        <path class="cls-1" d="M512.6,168.5C512.6,75.5,588,0,681.1,0s168.5,75.5,168.5,168.5-75.5,168.5-168.5,168.5-168.5-75.5-168.5-168.5ZM590.6,168.5c0,50,40.5,90.5,90.5,90.5s90.5-40.5,90.5-90.5-40.5-90.5-90.5-90.5-90.5,40.5-90.5,90.5Z"/>
        <path class="cls-1" d="M905.7,168.5c0-93,75.5-168.5,168.5-168.5s168.5,75.5,168.5,168.5-75.4,168.5-168.5,168.5-168.5-75.5-168.5-168.5ZM983.7,168.5c0,50,40.5,90.5,90.5,90.5s90.5-40.5,90.5-90.5-40.5-90.5-90.5-90.5-90.5,40.5-90.5,90.5Z"/>
        <path class="cls-2" d="M3.5,6.2h81.6l64.1,209.6,43.7-108.2c5.7-14.2,19.5-23.4,34.7-23.4h31.1c15.3,0,29,9.2,34.7,23.4l43.7,108.2,24-78.5h81.6l-51,166.9c-4.8,15.7-19.3,26.5-35.8,26.5h-28.6c-15.3,0-29-9.2-34.7-23.4l-49.4-122.1-49.4,122.1c-5.7,14.2-19.5,23.4-34.7,23.4h-28.6c-16.5,0-31-10.7-35.8-26.5L3.5,6.2Z"/>
        <path class="cls-2" d="M377.3,84.2l23.8-78h81.6l-23.9,78h-81.6Z"/>
        <path class="cls-3" d="M1265.2,6.2l117.9,162.3-117.9,162.3h96.4l101.9-140.2c9.5-13.1,9.5-30.9,0-44L1361.6,6.2h-96.4Z"/>
        <path class="cls-3" d="M1501,6.2l-46.5,64,48.2,66.4L1597.4,6.2h-96.4Z"/>
        <path class="cls-3" d="M1504,202.2l-48.2,66.4,45.2,62.2h96.3c0-.1-93.3-128.6-93.3-128.6Z"/>
      </g>
    </g>
  </g>
</svg>